<svg xmlns="http://www.w3.org/2000/svg" width="21" height="22" viewBox="0 0 21 22"><g fill="none" fill-rule="evenodd" stroke="#004D43" transform="translate(1.347 1)"><g transform="translate(0 12)"><path d="M9.2375,0 C6.33897778,0 3.76787361,0.638 2.0784375,1.193 C0.831375,1.604 0,2.749 0,4.032 L0,8 C0,8 10.2207806,8 10.2638889,8"/><path d="M17.4486111,0 C14.5500889,0 11.9789847,0.638 10.2895486,1.193 C9.04248611,1.604 8.21111111,2.749 8.21111111,4.032 L8.21111111,8 C8.21111111,8 18.4318917,8 18.475,8" transform="matrix(-1 0 0 1 26.686 0)"/></g><path stroke-linecap="square" d="M9.2375,12 L9.2375,12 C6.40364028,12 4.10555556,8.761 4.10555556,6 L4.10555556,5 C4.10555556,2.239 6.40364028,0 9.2375,0 L9.2375,0 C12.0713597,0 14.3694444,2.239 14.3694444,5 L14.3694444,6 C14.3694444,8.761 12.0713597,12 9.2375,12 Z"/></g></svg>