<?xml version="1.0" encoding="UTF-8"?>
<svg xmlns="http://www.w3.org/2000/svg" xmlns:xlink="http://www.w3.org/1999/xlink" version="1.1" viewBox="0 0 165 38">
  <defs>
    <style>
      .cls-1 {
        filter: url(#drop-shadow-1);
      }

      .cls-2 {
        fill: #fde4cb;
      }

      .cls-3 {
        fill: #004d43;
      }

      .cls-4 {
        fill: #df4047;
      }

      .cls-5 {
        fill: #eba900;
      }
    </style>
    <filter id="drop-shadow-1" x="-1.73" y="-.93" width="21.6" height="19.68" filterUnits="userSpaceOnUse">
      <feOffset dx=".32" dy=".32"/>
      <feGaussianBlur result="blur" stdDeviation=".64"/>
      <feFlood flood-color="#1d1d1b" flood-opacity=".25"/>
      <feComposite in2="blur" operator="in"/>
      <feComposite in="SourceGraphic"/>
    </filter>
  </defs>
  <!-- Generator: Adobe Illustrator 28.7.2, SVG Export Plug-In . SVG Version: 1.2.0 Build 154)  -->
  <g>
    <g id="Capa_1">
      <g>
        <g>
          <path class="cls-3" d="M46.23,26.39c-4,.05-7.28-3.23-7.33-7.3-.03-2.39,1.08-4.86,3.12-6.13.95-.6,2.05-.8,3.14-.81,1.68-.02,3.11.37,4.55,1.26l.67-1.85c-1.39-.67-2.87-.97-4.41-.95-1.5.02-2.88.47-4.19,1.21-.31.19-.6.35-.91.53-2.55,1.53-4.06,4.28-4.03,7.28.06,4.68,3.88,8.32,8.44,8.27,2.44-.03,3.46-.47,5.48-1.7l-.17-1.04c-1.4.83-2.74,1.21-4.37,1.23ZM95.7,16.05v3.37c-.54-.37-1.17-.58-1.81-.58s-1.29.18-1.86.51l-.6.35c-1.2.7-1.89,2-1.89,3.41,0,2.15,1.62,3.91,3.75,3.91.96,0,1.65-.37,2.43-.9v.71h1.32v-11.86l-1.69.48.35.59ZM95.7,25.38c-.46.46-1.02.66-1.65.66-1.78,0-3.14-1.51-3.14-3.29,0-1.01.46-2.08,1.33-2.63.36-.23.79-.29,1.2-.29.85,0,1.67.35,2.27.98v4.57ZM65.78,18.83c0-.46.23-1.14.65-1.35.15-.09.6-.14.78-.15.94-.01,1.93.48,2.65,1.08l.61-1.62c-.81-.58-1.75-.89-2.76-.88-.56,0-1.09.17-1.58.45l-.87.51c-.89.51-1.39,1.47-1.38,2.49.05,3.84,5.19,1.94,5.22,5.12.01.93-.54,1.64-1.47,1.65-1.16.01-2.18-.54-3.08-1.24l-.63,1.67c.88.63,1.96.98,3.03.96.6,0,1.18-.17,1.69-.47l.84-.51c.93-.56,1.52-1.54,1.51-2.66-.05-3.93-5.19-2.1-5.22-5.07ZM60.96,24.51l-.07-5.43c-.02-2.05-1.49-3.05-3.39-3.03-1.68.02-2.72.51-4.14,1.35l.32.84c.82-.47,1.85-.75,2.79-.76,1.25-.01,2.33.61,2.44,1.97.07.27.03.59.08.89-1.3.06-2.9.26-4.03.96l-.87.53c-1.09.67-1.61,1.61-1.6,2.91.02,1.89,1.51,2.98,3.28,2.96,1.16-.02,2.72-.94,3.49-1.79.24,1.25.98,1.56,2.14,1.54h.63s.5-1.35.5-1.35c-1.19.01-1.55-.37-1.56-1.57ZM56.89,26.31c-1.32.02-2.51-.79-2.53-2.22,0-.7.27-1.57.89-1.97.78-.49,2.85-.62,3.77-.66l.04,3.39c-.53.76-1.19,1.45-2.17,1.46ZM81.18,24.27l-.07-5.43c-.02-2.05-1.49-3.05-3.39-3.03-1.67.02-2.72.51-4.14,1.35l.32.84c.82-.46,1.85-.75,2.79-.76,1.25-.01,2.33.61,2.44,1.97.07.27.03.59.08.89-1.29.06-2.9.26-4.03.96l-.87.53c-1.09.67-1.61,1.61-1.6,2.91.02,1.88,1.51,2.98,3.28,2.96,1.16-.01,2.71-.94,3.49-1.79.24,1.25.98,1.56,2.14,1.54h.63s.5-1.35.5-1.35c-1.19.01-1.55-.37-1.56-1.57ZM77.11,26.06c-1.32.02-2.51-.79-2.53-2.22,0-.7.27-1.57.89-1.97.78-.49,2.85-.62,3.77-.66l.04,3.39c-.53.76-1.19,1.45-2.17,1.46ZM102.98,18.84c-1.04,0-1.54.34-2.41.87-1.2.74-1.89,1.99-1.89,3.41,0,2.23,1.75,3.91,3.93,3.91.8,0,1.6-.23,2.3-.63.47-.27.92-.51,1.31-.88l-.31-.58c-.91.69-1.45,1.11-2.65,1.11-1.32,0-2.53-.83-2.98-2.12-.08-.24-.17-.55-.17-.8,0-.03.03-.08.05-.11h6.24c0-.51.03-.99-.1-1.49-.39-1.57-1.7-2.69-3.31-2.69ZM100.1,22.13c.11-.79.54-1.64,1.21-2.05.35-.23.77-.26,1.18-.26,1.34,0,2.49.95,2.68,2.31h-5.07ZM108.18,16.05v10.79h1.34v-11.86l-1.67.48.33.59ZM159.6,15.59c-1.01,0-1.92.25-2.8.75-.29.16-.58.34-.87.5-1.72,1-2.68,2.8-2.68,4.82,0,3.11,2.44,5.55,5.5,5.55,1,0,1.95-.27,2.82-.77.29-.16.56-.34.85-.5,1.72-1.02,2.68-2.77,2.68-4.8,0-3.14-2.44-5.55-5.5-5.55ZM161.9,24.87c-.13.14-.43.43-.58.52-.45.27-1.21.41-1.72.41-2.53,0-4.4-2.14-4.4-4.66,0-1.43.62-2.96,1.85-3.73.52-.32,1.1-.41,1.7-.41,2.53,0,4.43,2.14,4.43,4.66,0,1.18-.47,2.34-1.27,3.2ZM149.92,16.23c-.35.23-.96.64-1.21.98v-1.61l-2.34.68.47.84v9.82h1.9v-8.46c.56-.91,1.14-1.41,2.21-1.41.67,0,1.16.2,1.79.43l.49-1.64c-.36-.18-.78-.27-1.18-.27-.85,0-1.41.18-2.13.64ZM139.19,15.59c-1.32,0-2.37.5-3.42,1.25v-6.73l-2.37.68.47.84v14.71c.16.05.58.14.72.14s.18-.46.27-.46c.07,0,.09.07.16.11.16.11.34.23.51.32.87.48,1.83.75,2.82.75.92,0,1.81-.25,2.62-.7l.87-.5c1.72-.98,2.66-2.89,2.66-4.86,0-3.03-2.28-5.55-5.3-5.55ZM140.71,25.39c-.51.32-1.14.41-1.74.41-1.21,0-2.35-.5-3.2-1.34v-6.5c.72-.68,1.36-.95,2.35-.95,2.53,0,4.45,2.11,4.45,4.66,0,1.43-.63,2.96-1.85,3.73ZM120.22,10.38h-2.53l.52.89v15.66h8.02l.56-1.5h-6.57v-15.05ZM129.78,11.93c-.6,0-1.34.43-1.34,1.11,0,.61.47,1.05,1.05,1.05s1.32-.43,1.32-1.11c0-.59-.45-1.05-1.03-1.05ZM128.75,17.11v9.82h1.9v-11.34l-2.37.68.47.84Z"/>
          <path class="cls-5" d="M33.29,29.16s.14,1.5.04,2.12c-.05.28-4.18,5.89-11.7,5.9-4.12,0-6.11-2.88-11.68-2.63-1.9.09-3.86.81-5.17,1.87-.16-.44-.27-.89-.19-1.21.5-.93,1.28-1.74,2.16-2.37,2.37-3.73,3.82-17.7,2.85-27.17.82-.85,1.88-1.58,3-1.86,0,0,.45.84.5,2.11.21,4.48-1.43,18.85-3.84,25.58,0,0,2.09-.55,3.93-.29,3.34.48,5.97,3.56,10.42,3.39,6.27-.24,9.69-5.44,9.69-5.44Z"/>
        </g>
        <g class="cls-1">
          <path class="cls-4" d="M2.92,12.77c.23-.09.34-.26.46-.44.27-.39.54-.78.82-1.17.11-.15.22-.3.36-.42.28-.26.59-.45,1-.27.12.05.26.03.39.07.3.09.57.03.84-.11.23-.12.47-.24.71-.36,1.21-.59,2.44-1.15,3.64-1.77,1.22-.63,2.41-1.31,3.47-2.2.16-.13.32-.28.45-.44.22-.29.19-.59-.04-.87-1.59-1.96-3.02-2.63-4.75-3.26-.87-.32-1.77-.55-2.69-.65-.55-.06-1.11-.08-1.66,0-.99.13-1.88.51-2.59,1.24-.26.27-.46.57-.64.9-.73,1.34-1.13,2.78-1.22,4.31-.07,1.19-.05,2.37.09,3.56.07.55.09,1.1.14,1.66.03.37.3.55.66.44.2-.06.4-.15.58-.21Z"/>
          <path class="cls-2" d="M10.5,12c1.44-.68,2.77-1.54,4.04-2.48.57-.42,1.16-.83,1.72-1.27.29-.23.55-.49.8-.77.42-.48.64-1.03.54-1.68-.07-.45-.29-.85-.58-1.2-.13-.16-.3-.3-.45-.44-.43-.41-.93-.47-1.47-.27-.6.22-1.15.54-1.68.89-1.02.66-2.03,1.32-3.05,1.99-.77.51-1.53,1.03-2.3,1.54-.59.39-1.18.79-1.79,1.17-.27.17-.52.37-.74.59-.28.27-.4.61-.33,1.01.13.77.52,1.38,1.15,1.82.46.32.99.37,1.52.2.53-.17,1.07-.3,1.56-.57.35-.19.71-.35,1.06-.53Z"/>
          <path class="cls-2" d="M3.78,13.02c-.08-.14-.15-.28-.25-.4-.08-.1-.18-.21-.29-.25-.77-.29-1.53-.35-2.24.19-.74.56-1.08,1.27-.83,2.2.04.15.08.3.11.46.18.82.86,1.14,1.41,1.15.54,0,1.03-.12,1.45-.5.43-.39.71-.85.83-1.4.12-.5.09-1-.2-1.45Z"/>
        </g>
        <path class="cls-5" d="M29.11,29.32c-.72.26-1.43.6-2.18.77-.56.13-1.13.14-1.67.4-.92.44-.72,1.86.29,1.86,2.45,0,3.58-3.04,3.58-3.04h-.02Z"/>
      </g>
    </g>
  </g>
</svg>